<svg id="visual" viewBox="0 0 960 540" width="960" height="540" xmlns="http://www.w3.org/2000/svg" xmlns:xlink="http://www.w3.org/1999/xlink" version="1.1"><rect x="0" y="0" width="960" height="540" fill="#d9edf7"></rect><path d="M0 275L22.8 276.7C45.7 278.3 91.3 281.7 137 316.2C182.7 350.7 228.3 416.3 274 440.5C319.7 464.7 365.3 447.3 411.2 429.7C457 412 503 394 548.8 376C594.7 358 640.3 340 686 339.3C731.7 338.7 777.3 355.3 823 350.5C868.7 345.7 914.3 319.3 937.2 306.2L960 293L960 541L937.2 541C914.3 541 868.7 541 823 541C777.3 541 731.7 541 686 541C640.3 541 594.7 541 548.8 541C503 541 457 541 411.2 541C365.3 541 319.7 541 274 541C228.3 541 182.7 541 137 541C91.3 541 45.7 541 22.8 541L0 541Z" fill="#C62368" stroke-linecap="round" stroke-linejoin="miter"></path></svg>